<svg xmlns="http://www.w3.org/2000/svg" width="900" height="540" viewBox="0 0 900 540">
<rect width="900" height="540" fill="white"/>
<style>text{font-family:Arial,Helvetica,sans-serif;font-size:13px;fill:#222}.title{font-size:20px;font-weight:700}.axis{stroke:#222;stroke-width:1.2}.grid{stroke:#ddd;stroke-width:1;stroke-dasharray:2 4}.tick{stroke:#222;stroke-width:1}.label{font-size:14px}</style>
<text x="450" y="26" text-anchor="middle" class="title">combine CPE vs vector length</text>
<line x1="86" y1="466.0" x2="876" y2="466.0" class="grid"/>
<text x="76" y="470.0" text-anchor="end">0.00</text>
<line x1="86" y1="381.2" x2="876" y2="381.2" class="grid"/>
<text x="76" y="385.2" text-anchor="end">0.24</text>
<line x1="86" y1="296.4" x2="876" y2="296.4" class="grid"/>
<text x="76" y="300.4" text-anchor="end">0.48</text>
<line x1="86" y1="211.6" x2="876" y2="211.6" class="grid"/>
<text x="76" y="215.6" text-anchor="end">0.71</text>
<line x1="86" y1="126.8" x2="876" y2="126.8" class="grid"/>
<text x="76" y="130.8" text-anchor="end">0.95</text>
<line x1="86" y1="42.0" x2="876" y2="42.0" class="grid"/>
<text x="76" y="46.0" text-anchor="end">1.19</text>
<line x1="86.0" y1="42" x2="86.0" y2="466" class="grid"/>
<text x="86.0" y="490" text-anchor="middle">256</text>
<line x1="151.8" y1="42" x2="151.8" y2="466" class="grid"/>
<text x="151.8" y="490" text-anchor="middle">512</text>
<line x1="217.7" y1="42" x2="217.7" y2="466" class="grid"/>
<text x="217.7" y="490" text-anchor="middle">1024</text>
<line x1="283.5" y1="42" x2="283.5" y2="466" class="grid"/>
<text x="283.5" y="490" text-anchor="middle">2048</text>
<line x1="349.3" y1="42" x2="349.3" y2="466" class="grid"/>
<text x="349.3" y="490" text-anchor="middle">4096</text>
<line x1="415.2" y1="42" x2="415.2" y2="466" class="grid"/>
<text x="415.2" y="490" text-anchor="middle">8192</text>
<line x1="481.0" y1="42" x2="481.0" y2="466" class="grid"/>
<text x="481.0" y="490" text-anchor="middle">16384</text>
<line x1="546.8" y1="42" x2="546.8" y2="466" class="grid"/>
<text x="546.8" y="490" text-anchor="middle">32768</text>
<line x1="612.7" y1="42" x2="612.7" y2="466" class="grid"/>
<text x="612.7" y="490" text-anchor="middle">65536</text>
<line x1="678.5" y1="42" x2="678.5" y2="466" class="grid"/>
<text x="678.5" y="490" text-anchor="middle">131072</text>
<line x1="744.3" y1="42" x2="744.3" y2="466" class="grid"/>
<text x="744.3" y="490" text-anchor="middle">262144</text>
<line x1="810.2" y1="42" x2="810.2" y2="466" class="grid"/>
<text x="810.2" y="490" text-anchor="middle">524288</text>
<line x1="876.0" y1="42" x2="876.0" y2="466" class="grid"/>
<text x="876.0" y="490" text-anchor="middle">1048576</text>
<line x1="86" y1="466" x2="876" y2="466" class="axis"/>
<line x1="86" y1="42" x2="86" y2="466" class="axis"/>
<text x="450" y="522" text-anchor="middle" class="label">n (elements, log2 scale)</text>
<text transform="translate(22 270) rotate(-90)" text-anchor="middle" class="label">ns/element</text>
<polyline fill="none" stroke="#2f6fbb" stroke-width="2.2" points="86.0,74.2 151.8,227.0 217.7,305.0 283.5,344.7 349.3,362.2 415.2,370.0 481.0,372.9 546.8,375.1 612.7,376.6 678.5,377.1 744.3,375.8 810.2,375.3 876.0,376.6"/>
<circle cx="86.0" cy="74.2" r="3.5" fill="#2f6fbb"/>
<circle cx="151.8" cy="227.0" r="3.5" fill="#2f6fbb"/>
<circle cx="217.7" cy="305.0" r="3.5" fill="#2f6fbb"/>
<circle cx="283.5" cy="344.7" r="3.5" fill="#2f6fbb"/>
<circle cx="349.3" cy="362.2" r="3.5" fill="#2f6fbb"/>
<circle cx="415.2" cy="370.0" r="3.5" fill="#2f6fbb"/>
<circle cx="481.0" cy="372.9" r="3.5" fill="#2f6fbb"/>
<circle cx="546.8" cy="375.1" r="3.5" fill="#2f6fbb"/>
<circle cx="612.7" cy="376.6" r="3.5" fill="#2f6fbb"/>
<circle cx="678.5" cy="377.1" r="3.5" fill="#2f6fbb"/>
<circle cx="744.3" cy="375.8" r="3.5" fill="#2f6fbb"/>
<circle cx="810.2" cy="375.3" r="3.5" fill="#2f6fbb"/>
<circle cx="876.0" cy="376.6" r="3.5" fill="#2f6fbb"/>
<line x1="742" y1="60" x2="772" y2="60" stroke="#2f6fbb" stroke-width="2.2"/>
<text x="780" y="64">combine1</text>
<polyline fill="none" stroke="#c4572a" stroke-width="2.2" points="86.0,73.4 151.8,223.1 217.7,291.5 283.5,333.2 349.3,352.3 415.2,360.5 481.0,362.1 546.8,362.9 612.7,368.2 678.5,367.3 744.3,335.4 810.2,335.2 876.0,333.9"/>
<circle cx="86.0" cy="73.4" r="3.5" fill="#c4572a"/>
<circle cx="151.8" cy="223.1" r="3.5" fill="#c4572a"/>
<circle cx="217.7" cy="291.5" r="3.5" fill="#c4572a"/>
<circle cx="283.5" cy="333.2" r="3.5" fill="#c4572a"/>
<circle cx="349.3" cy="352.3" r="3.5" fill="#c4572a"/>
<circle cx="415.2" cy="360.5" r="3.5" fill="#c4572a"/>
<circle cx="481.0" cy="362.1" r="3.5" fill="#c4572a"/>
<circle cx="546.8" cy="362.9" r="3.5" fill="#c4572a"/>
<circle cx="612.7" cy="368.2" r="3.5" fill="#c4572a"/>
<circle cx="678.5" cy="367.3" r="3.5" fill="#c4572a"/>
<circle cx="744.3" cy="335.4" r="3.5" fill="#c4572a"/>
<circle cx="810.2" cy="335.2" r="3.5" fill="#c4572a"/>
<circle cx="876.0" cy="333.9" r="3.5" fill="#c4572a"/>
<line x1="742" y1="82" x2="772" y2="82" stroke="#c4572a" stroke-width="2.2"/>
<text x="780" y="86">combine2</text>
<polyline fill="none" stroke="#2f8f5b" stroke-width="2.2" points="86.0,156.8 151.8,299.8 217.7,371.7 283.5,409.0 349.3,427.1 415.2,436.3 481.0,440.2 546.8,439.0 612.7,440.5 678.5,441.1 744.3,441.5 810.2,441.7 876.0,441.8"/>
<circle cx="86.0" cy="156.8" r="3.5" fill="#2f8f5b"/>
<circle cx="151.8" cy="299.8" r="3.5" fill="#2f8f5b"/>
<circle cx="217.7" cy="371.7" r="3.5" fill="#2f8f5b"/>
<circle cx="283.5" cy="409.0" r="3.5" fill="#2f8f5b"/>
<circle cx="349.3" cy="427.1" r="3.5" fill="#2f8f5b"/>
<circle cx="415.2" cy="436.3" r="3.5" fill="#2f8f5b"/>
<circle cx="481.0" cy="440.2" r="3.5" fill="#2f8f5b"/>
<circle cx="546.8" cy="439.0" r="3.5" fill="#2f8f5b"/>
<circle cx="612.7" cy="440.5" r="3.5" fill="#2f8f5b"/>
<circle cx="678.5" cy="441.1" r="3.5" fill="#2f8f5b"/>
<circle cx="744.3" cy="441.5" r="3.5" fill="#2f8f5b"/>
<circle cx="810.2" cy="441.7" r="3.5" fill="#2f8f5b"/>
<circle cx="876.0" cy="441.8" r="3.5" fill="#2f8f5b"/>
<line x1="742" y1="104" x2="772" y2="104" stroke="#2f8f5b" stroke-width="2.2"/>
<text x="780" y="108">combine3</text>
</svg>